# xmcd
#
# Track frame offsets:
#	150
#	19430
#	37463
#	56593
#	72767
#	88097
#	104169
#	122030
#	138170
#	162305
#	177463
#	196372
#	214974
#	231299
#	249655
#	266034
#	282037
#	302168
#	318182
#
# Disc length: 4419 seconds
#
# Revision: 2
# Processed by: cddbd v1.5.2PL0 Copyright (c) Steve Scherf et al.
# Submitted via: audiograbber 1.83.01
#
DISCID=29114113
DTITLE=Various Artist - CMT Fantastic Females
DYEAR=1999
DGENRE=Country
TTITLE0=Faith Hill - The Secret Of Life
TTITLE1=Kasey Chambers - Cry Like A Baby
TTITLE2=Jewel - Down So Long
TTITLE3=Renee Stewart - Kiss And Tell
TTITLE4=Lila McCann - With You
TTITLE5=Lari White - Take Me
TTITLE6=Shanley Del - Your Love Is Still On My Mind
TTITLE7=Linda Ronstadt and Emmylou Harris - Sweet Spot
TTITLE8=Deana Carter - Angels Working Overtime
TTITLE9=SHeDaisy - Little Good-Byes
TTITLE10=Felicity - Country Girl (In The Urban World)
TTITLE11=Beth Nielsen Chapman - Sand and Water
TTITLE12=Kelly Willis - Not Forgotten You
TTITLE13=Olivia Newton-John - I Love You, I Honestly Love You
TTITLE14=Sherrie Austin - Never Been Kissed
TTITLE15=Beccy Cole - Somebody Like You
TTITLE16=Paula Cole - Where Have All The Cowboys Gone?
TTITLE17=Susan Ashton - You're Lucky I Love You
TTITLE18=Pam Tillis - I Said A Prayer
EXTD=
EXTT0=
EXTT1=
EXTT2=
EXTT3=
EXTT4=
EXTT5=
EXTT6=
EXTT7=
EXTT8=
EXTT9=
EXTT10=
EXTT11=
EXTT12=
EXTT13=
EXTT14=
EXTT15=
EXTT16=
EXTT17=
EXTT18=
PLAYORDER=
